# xmcd
#
# Track frame offsets:
# 150
# 15286
# 28841
# 38405
# 54319
# 67764
# 78647
# 88685
# 104662
# 118873
# 128747
# 141595
#
# Disc length: 2082 seconds
#
#
# Revision: 0
# Processed by: cddbd v1.5.2PL0 Copyright (c) Steve Scherf et al.
# Submitted via: Nero 7, 11, 10, 0 
#
DISCID=9b08200c
DTITLE=Paul deLay Band - Teasin'
DYEAR=1982
DGENRE=Blues
TTITLE0=My Eyes Keep Me in Trouble 
TTITLE1=Barefoot Rock
TTITLE2=Hold Your Hand
TTITLE3=Would You Baby
TTITLE4=She's Just Teasin' You
TTITLE5=Wham!
TTITLE6=Don't Leave Your Daddy At Home
TTITLE7=What A Fool
TTITLE8=That's How Much You Mean To Me
TTITLE9=Alrighty
TTITLE10=Baby Please
TTITLE11=Down The Line
EXTD=
EXTT0=My Eyes Keep Me in Trouble 
EXTT1=Barefoot Rock
EXTT2=Hold Your Hand
EXTT3=Would You Baby
EXTT4=She's Just Teasin' You
EXTT5=Wham!
EXTT6=Don't Leave Your Daddy At Home
EXTT7=What A Fool
EXTT8=That's How Much You Mean To Me
EXTT9=Alrighty
EXTT10=Baby Please
EXTT11=Down The Line
PLAYORDER=
